<svg width="24" height="25" viewBox="0 0 24 25" fill="none" xmlns="http://www.w3.org/2000/svg">
<g clip-path="url(#clip0_710_907)">
<path d="M24 12.3633C24 5.73586 18.6274 0.363281 12 0.363281C5.37258 0.363281 0 5.73586 0 12.3633C0 18.3527 4.3882 23.3173 10.125 24.2175V15.832H7.07812V12.3633H10.125V9.71953C10.125 6.71203 11.9166 5.05078 14.6576 5.05078C15.9701 5.05078 17.3438 5.28516 17.3438 5.28516V8.23828H15.8306C14.34 8.23828 13.875 9.16336 13.875 10.1133V12.3633H17.2031L16.6711 15.832H13.875V24.2175C19.6118 23.3173 24 18.3527 24 12.3633Z" fill="white"/>
</g>
<defs>
<clipPath id="clip0_710_907">
<rect width="24" height="24" fill="white" transform="translate(0 0.363281)"/>
</clipPath>
</defs>
</svg>
