<svg width="48" height="48" viewBox="0 0 48 48" fill="none" xmlns="http://www.w3.org/2000/svg">
<path d="M13.3333 36H34.6667C35.4 36 36 35.1 36 34C36 32.9 35.4 32 34.6667 32H13.3333C12.6 32 12 32.9 12 34C12 35.1 12.6 36 13.3333 36ZM21.4054 26H34.6667C35.4 26 36 25.1 36 24C36 22.9 35.4 22 34.6667 22H21.4054C20.6721 22 19.4595 22.9 19.4595 24C19.4595 25.1 20.6721 26 21.4054 26ZM12 14C12 15.1 12.6 16 13.3333 16H34.6667C35.4 16 36 15.1 36 14C36 12.9 35.4 12 34.6667 12H13.3333C12.6 12 12 12.9 12 14Z" fill="#FCFCFC"/>
</svg>
