<svg width="24" height="25" viewBox="0 0 24 25" fill="none" xmlns="http://www.w3.org/2000/svg">
<g clip-path="url(#clip0_710_913)">
<path d="M22.2234 0.363281H1.77187C0.792187 0.363281 0 1.13672 0 2.09297V22.6289C0 23.5852 0.792187 24.3633 1.77187 24.3633H22.2234C23.2031 24.3633 24 23.5852 24 22.6336V2.09297C24 1.13672 23.2031 0.363281 22.2234 0.363281ZM7.12031 20.8148H3.55781V9.35859H7.12031V20.8148ZM5.33906 7.79766C4.19531 7.79766 3.27188 6.87422 3.27188 5.73516C3.27188 4.59609 4.19531 3.67266 5.33906 3.67266C6.47813 3.67266 7.40156 4.59609 7.40156 5.73516C7.40156 6.86953 6.47813 7.79766 5.33906 7.79766ZM20.4516 20.8148H16.8937V15.2461C16.8937 13.9195 16.8703 12.2086 15.0422 12.2086C13.1906 12.2086 12.9094 13.657 12.9094 15.1523V20.8148H9.35625V9.35859H12.7687V10.9242H12.8156C13.2891 10.0242 14.4516 9.07266 16.1813 9.07266C19.7859 9.07266 20.4516 11.4445 20.4516 14.5289V20.8148Z" fill="white"/>
</g>
<defs>
<clipPath id="clip0_710_913">
<rect width="24" height="24" fill="white" transform="translate(0 0.363281)"/>
</clipPath>
</defs>
</svg>
