<svg width="20" height="20" viewBox="0 0 20 20" fill="none" xmlns="http://www.w3.org/2000/svg">
<path fill-rule="evenodd" clip-rule="evenodd" d="M8.68556 1.91687e-08C7.33015 0.000115492 5.99442 0.324364 4.78981 0.945694C3.58521 1.56702 2.54665 2.46742 1.76079 3.57175C0.974935 4.67609 0.464566 5.95235 0.272265 7.29404C0.079963 8.63574 0.211306 10.004 0.655335 11.2846C1.09936 12.5652 1.8432 13.7211 2.82479 14.6557C3.80638 15.5904 4.99726 16.2768 6.29807 16.6576C7.59888 17.0384 8.9719 17.1026 10.3026 16.8449C11.6333 16.5872 12.883 16.015 13.9476 15.176L17.5996 18.828C17.7882 19.0102 18.0408 19.111 18.303 19.1087C18.5652 19.1064 18.816 19.0012 19.0014 18.8158C19.1868 18.6304 19.292 18.3796 19.2942 18.1174C19.2965 17.8552 19.1957 17.6026 19.0136 17.414L15.3616 13.762C16.3496 12.5086 16.9647 11.0024 17.1367 9.41573C17.3086 7.82905 17.0304 6.22602 16.3338 4.79009C15.6372 3.35417 14.5504 2.14336 13.1979 1.29623C11.8453 0.449106 10.2815 -0.000107143 8.68556 1.91687e-08ZM2.18556 8.5C2.18556 6.77609 2.87038 5.12279 4.08936 3.90381C5.30835 2.68482 6.96165 2 8.68556 2C10.4095 2 12.0628 2.68482 13.2818 3.90381C14.5007 5.12279 15.1856 6.77609 15.1856 8.5C15.1856 10.2239 14.5007 11.8772 13.2818 13.0962C12.0628 14.3152 10.4095 15 8.68556 15C6.96165 15 5.30835 14.3152 4.08936 13.0962C2.87038 11.8772 2.18556 10.2239 2.18556 8.5Z" fill="black" fill-opacity="0.5"/>
</svg>
