<svg width="24" height="25" viewBox="0 0 24 25" fill="none" xmlns="http://www.w3.org/2000/svg">
<g clip-path="url(#clip0_710_910)">
<path d="M7.55016 22.1133C16.6045 22.1133 21.5583 14.61 21.5583 8.10514C21.5583 7.8942 21.5536 7.67858 21.5442 7.46764C22.5079 6.77074 23.3395 5.90754 24 4.91858C23.1025 5.31788 22.1496 5.57866 21.1739 5.69202C22.2013 5.07619 22.9705 4.10875 23.3391 2.96905C22.3726 3.54184 21.3156 3.94589 20.2134 4.16389C19.4708 3.37484 18.489 2.8524 17.4197 2.67733C16.3504 2.50227 15.2532 2.68433 14.2977 3.19538C13.3423 3.70642 12.5818 4.51799 12.1338 5.50459C11.6859 6.4912 11.5754 7.5979 11.8195 8.65358C9.86249 8.55537 7.94794 8.04699 6.19998 7.16138C4.45203 6.27577 2.90969 5.03272 1.67297 3.5128C1.0444 4.59652 0.852057 5.87893 1.13503 7.09937C1.418 8.31982 2.15506 9.38673 3.19641 10.0833C2.41463 10.0584 1.64998 9.84796 0.965625 9.4692V9.53014C0.964925 10.6674 1.3581 11.7699 2.07831 12.6501C2.79852 13.5302 3.80132 14.1338 4.91625 14.3583C4.19206 14.5564 3.43198 14.5853 2.69484 14.4426C3.00945 15.4207 3.62157 16.2762 4.44577 16.8896C5.26997 17.5031 6.26512 17.8439 7.29234 17.8645C5.54842 19.2344 3.39417 19.9774 1.17656 19.9739C0.783287 19.9733 0.390399 19.9492 0 19.9017C2.25286 21.347 4.87353 22.1147 7.55016 22.1133Z" fill="white"/>
</g>
<defs>
<clipPath id="clip0_710_910">
<rect width="24" height="24" fill="white" transform="translate(0 0.363281)"/>
</clipPath>
</defs>
</svg>
