<svg width="206" height="61" viewBox="0 0 206 61" fill="none" xmlns="http://www.w3.org/2000/svg">
<path d="M32.7734 5.49207C32.7734 5.49207 31.224 5.43606 30.3974 6.38273C29.3667 7.48406 29.368 8.91473 29.368 8.91473C29.9187 8.37607 30.388 7.7934 31.1134 7.7974C32.2614 7.81074 33.1374 9.31074 34.1 9.83607C35.2187 10.4401 36.312 8.82273 36.3667 8.73473L30.908 19.3881H1.90002L7.27869 24.7681H67.704L73.0827 19.3881H45.5294L43.1894 7.10406L44.808 5.48807L32.7734 5.49207Z" fill="url(#paint0_linear_5002_260)"/>
<path d="M40.148 27.1959L40.152 27.1999H34.8307L34.8347 27.1959H13.3867L18.7654 32.5746H29.4547L34.612 27.4173L28.1414 50.3106L20.6667 44.0919L30.172 53.5973L31.3081 50.1359L37.1027 32.5786L33.5987 50.0146L32.4267 55.8533L37.4241 60.8506L42.5867 55.6786L41.4494 49.5986L38.2561 32.5786L43.5841 49.4866L44.8227 53.4413L54.2481 44.0173L46.5681 49.3306L40.376 27.4239L45.5281 32.5746H56.4854L61.8641 27.1959H40.148Z" fill="url(#paint1_linear_5002_260)"/>
<path d="M54.08 38.395L55.9706 40.2856H73.1826L74.988 38.4896L64.4893 27.9843L54.08 38.395Z" fill="url(#paint2_linear_5002_260)"/>
<path d="M58.1013 42.4147L60.4853 44.7974H68.676L71.0586 42.4147H58.1013Z" fill="url(#paint3_linear_5002_260)"/>
<path d="M0 38.4896L1.796 40.2856H19.0067L20.9067 38.395L10.4973 27.9843L0 38.4896Z" fill="url(#paint4_linear_5002_260)"/>
<path d="M3.92395 42.4147L6.30662 44.7974H14.4973L16.8813 42.4147H3.92395Z" fill="url(#paint5_linear_5002_260)"/>
<path d="M39.3773 2.67995L37.4893 0.793294L35.6039 2.68128L32.9226 -4.05312e-05L33.3826 3.95996H41.5999L42.0599 -4.05312e-05L39.3773 2.67995Z" fill="url(#paint6_linear_5002_260)"/>
<path d="M46.9546 34.9892L45.1252 43.9346L54.0652 34.9892H46.9546Z" fill="url(#paint7_linear_5002_260)"/>
<path d="M20.9066 34.9892L29.8533 43.9346L28.0199 34.9892H20.9066Z" fill="url(#paint8_linear_5002_260)"/>
<path d="M32.7734 5.49207C32.7734 5.49207 31.224 5.43606 30.3974 6.38273C29.3667 7.48406 29.368 8.91473 29.368 8.91473C29.9187 8.37607 30.388 7.7934 31.1134 7.7974C32.2614 7.81074 33.1374 9.31074 34.1 9.83607C35.2187 10.4401 36.312 8.82273 36.3667 8.73473L30.908 19.3881H1.90137L7.2787 24.7681H67.704L73.084 19.3881H45.5294L43.1894 7.10406L44.808 5.48807L32.7734 5.49207Z" fill="white"/>
<path d="M40.148 27.1959L40.1534 27.1999H34.8307L34.8347 27.1959H13.3867L18.7654 32.5746H29.4547L34.612 27.4173L28.1414 50.3106L20.6667 44.0919L30.172 53.5973L31.3081 50.1359L37.1041 32.5786L33.5987 50.0146L32.4267 55.8533L37.4241 60.8506L42.5867 55.6786L41.4494 49.5986L38.2561 32.5786L43.5841 49.4866L44.8227 53.4413L54.2481 44.0173L46.5681 49.3306L40.376 27.4239L45.5281 32.5746H56.4854L61.8641 27.1959H40.148Z" fill="white"/>
<path d="M54.0813 38.395L55.9706 40.2856H73.1826L74.988 38.4896L64.4893 27.9843L54.0813 38.395Z" fill="white"/>
<path d="M58.1013 42.4147L60.4853 44.7974H68.676L71.0586 42.4147H58.1013Z" fill="white"/>
<path d="M0 38.4896L1.796 40.2856H19.0067L20.9067 38.395L10.4973 27.9843L0 38.4896Z" fill="white"/>
<path d="M3.92395 42.4147L6.30662 44.7974H14.4973L16.8813 42.4147H3.92395Z" fill="white"/>
<path d="M39.3786 2.67995L37.4893 0.793294L35.6039 2.68128L32.9226 -4.05312e-05L33.3826 3.95996H41.5999L42.0599 -4.05312e-05L39.3786 2.67995Z" fill="white"/>
<path d="M46.9546 34.9892L45.1252 43.9346L54.0666 34.9892H46.9546Z" fill="white"/>
<path d="M20.9066 34.9892L29.8533 43.9346L28.0199 34.9892H20.9066Z" fill="white"/>
<path d="M88.5813 40.231H93.1586V27.475H88.5813V40.231Z" fill="white"/>
<path d="M80.3347 23.2974H101.411V19.388H80.3347V23.2974Z" fill="white"/>
<path d="M167.29 40.2314H171.75V19.3888H164.782L157.417 36.0088L149.969 19.3888H143.033V40.2314H147.54V23.6328L154.885 40.2314H159.897L167.29 23.5781V40.2314Z" fill="white"/>
<path d="M130.367 36.0666H109.359V40.2319C109.359 40.2319 134.927 40.2319 135.084 40.2239V36.0666H130.367Z" fill="white"/>
<path d="M109.359 31.8857H114.076V23.5537H135.083V19.3884C135.083 19.3884 109.516 19.3884 109.359 19.3964V31.8857Z" fill="white"/>
<path d="M184.415 23.5534H205.423V19.3881C205.423 19.3881 179.855 19.3881 179.699 19.3961V31.8921H184.415V23.5534Z" fill="white"/>
<path d="M205.73 28.0918H196.896V32.256C199.135 32.2515 196.857 32.2515 201.009 32.253V36.4291H180V40.5918L205.727 40.5843L205.73 28.0918Z" fill="white"/>
<defs>
<linearGradient id="paint0_linear_5002_260" x1="8.76493" y1="13.9175" x2="91.0863" y2="19.6832" gradientUnits="userSpaceOnUse">
<stop stop-color="#553C1E"/>
<stop offset="1" stop-color="#845F38"/>
</linearGradient>
<linearGradient id="paint1_linear_5002_260" x1="6.86623" y1="41.027" x2="89.1876" y2="46.7927" gradientUnits="userSpaceOnUse">
<stop stop-color="#553C1E"/>
<stop offset="1" stop-color="#845F38"/>
</linearGradient>
<linearGradient id="paint2_linear_5002_260" x1="7.60702" y1="30.4492" x2="89.9283" y2="36.2149" gradientUnits="userSpaceOnUse">
<stop stop-color="#553C1E"/>
<stop offset="1" stop-color="#845F38"/>
</linearGradient>
<linearGradient id="paint3_linear_5002_260" x1="6.97398" y1="39.4882" x2="89.2953" y2="45.2539" gradientUnits="userSpaceOnUse">
<stop stop-color="#553C1E"/>
<stop offset="1" stop-color="#845F38"/>
</linearGradient>
<linearGradient id="paint4_linear_5002_260" x1="7.34305" y1="34.2187" x2="89.6644" y2="39.9844" gradientUnits="userSpaceOnUse">
<stop stop-color="#553C1E"/>
<stop offset="1" stop-color="#845F38"/>
</linearGradient>
<linearGradient id="paint5_linear_5002_260" x1="6.70944" y1="43.2642" x2="89.0307" y2="49.0299" gradientUnits="userSpaceOnUse">
<stop stop-color="#553C1E"/>
<stop offset="1" stop-color="#845F38"/>
</linearGradient>
<linearGradient id="paint6_linear_5002_260" x1="9.73819" y1="0.0203268" x2="92.0595" y2="5.78601" gradientUnits="userSpaceOnUse">
<stop stop-color="#553C1E"/>
<stop offset="1" stop-color="#845F38"/>
</linearGradient>
<linearGradient id="paint7_linear_5002_260" x1="7.18373" y1="36.4915" x2="89.5051" y2="42.2572" gradientUnits="userSpaceOnUse">
<stop stop-color="#553C1E"/>
<stop offset="1" stop-color="#845F38"/>
</linearGradient>
<linearGradient id="paint8_linear_5002_260" x1="7.08293" y1="37.9314" x2="89.4042" y2="43.6971" gradientUnits="userSpaceOnUse">
<stop stop-color="#553C1E"/>
<stop offset="1" stop-color="#845F38"/>
</linearGradient>
</defs>
</svg>
