<svg width="48" height="48" viewBox="0 0 48 48" fill="none" xmlns="http://www.w3.org/2000/svg">
<path d="M19.1399 37.64C18.7599 37.64 18.3799 37.5 18.0799 37.2L5.93988 25.06C5.35988 24.48 5.35988 23.52 5.93988 22.94L18.0799 10.8C18.6599 10.22 19.6199 10.22 20.1999 10.8C20.7799 11.38 20.7799 12.34 20.1999 12.92L9.11988 24L20.1999 35.08C20.7799 35.66 20.7799 36.62 20.1999 37.2C19.9199 37.5 19.5199 37.64 19.1399 37.64Z" fill="white"/>
<path d="M41.0001 25.5H7.34009C6.52009 25.5 5.84009 24.82 5.84009 24C5.84009 23.18 6.52009 22.5 7.34009 22.5H41.0001C41.8201 22.5 42.5001 23.18 42.5001 24C42.5001 24.82 41.8201 25.5 41.0001 25.5Z" fill="white"/>
</svg>
