<svg width="29" height="24" viewBox="0 0 29 24" fill="none" xmlns="http://www.w3.org/2000/svg">
<path d="M13.205 3.65926L8.32988 12.6519L5.25788 13.5115C5.61405 12.8503 6.01475 12.3213 6.45996 11.9246C6.90518 11.4837 7.41718 11.2633 7.99596 11.2633C9.28709 11.2633 10.4447 11.7923 11.4687 12.8503C12.5372 13.8641 13.0714 15.1866 13.0714 16.8176C13.0714 18.5368 12.4704 20.0135 11.2683 21.2478C10.1107 22.4821 8.66379 23.0992 6.92744 23.0992C5.28014 23.0992 3.83318 22.5041 2.58658 21.3139C1.38449 20.0797 0.783447 18.5809 0.783447 16.8176C0.783447 16.1123 0.917012 15.2968 1.18414 14.3711C1.49579 13.4454 2.05232 12.2331 2.85371 10.7344L8.19631 0.948242L13.205 3.65926ZM28.2311 3.65926L23.356 12.6519L20.3507 13.5115C20.6624 12.8503 21.0408 12.3213 21.486 11.9246C21.9758 11.4837 22.4878 11.2633 23.022 11.2633C24.3132 11.2633 25.493 11.7923 26.5615 12.8503C27.63 13.8641 28.1643 15.1866 28.1643 16.8176C28.1643 18.5368 27.5633 20.0135 26.3612 21.2478C25.2036 22.4821 23.7566 23.0992 22.0203 23.0992C20.373 23.0992 18.926 22.5041 17.6794 21.3139C16.4773 20.0797 15.8763 18.5809 15.8763 16.8176C15.8763 16.1123 16.0099 15.2968 16.277 14.3711C16.5441 13.4454 17.0784 12.2331 17.8798 10.7344L23.2892 0.948242L28.2311 3.65926Z" fill="#845F38"/>
</svg>
